<?xml version="1.0" encoding="UTF-8" standalone="no"?>
<!-- Created with Inkscape (http://www.inkscape.org/) -->

<svg
   width="64pt"
   height="64pt"
   viewBox="0 0 22.577778 22.577778"
   version="1.1"
   id="svg831"
   inkscape:version="1.1.1 (3bf5ae0d25, 2021-09-20)"
   sodipodi:docname="#1.svg"
   inkscape:export-filename="C:\Users\User\Desktop\Done Januari II\E\14 - Tea Pot.png"
   inkscape:export-xdpi="576"
   inkscape:export-ydpi="576"
   xmlns:inkscape="http://www.inkscape.org/namespaces/inkscape"
   xmlns:sodipodi="http://sodipodi.sourceforge.net/DTD/sodipodi-0.dtd"
   xmlns="http://www.w3.org/2000/svg"
   xmlns:svg="http://www.w3.org/2000/svg"
   xmlns:rdf="http://www.w3.org/1999/02/22-rdf-syntax-ns#"
   xmlns:cc="http://creativecommons.org/ns#"
   xmlns:dc="http://purl.org/dc/elements/1.1/">
  <defs
     id="defs825">
    <pattern
       id="EMFhbasepattern"
       patternUnits="userSpaceOnUse"
       width="6"
       height="6"
       x="0"
       y="0" />
    <pattern
       id="EMFhbasepattern-9"
       patternUnits="userSpaceOnUse"
       width="6"
       height="6"
       x="0"
       y="0" />
    <pattern
       id="EMFhbasepattern-0"
       patternUnits="userSpaceOnUse"
       width="6"
       height="6"
       x="0"
       y="0" />
    <pattern
       id="EMFhbasepattern-7"
       patternUnits="userSpaceOnUse"
       width="6"
       height="6"
       x="0"
       y="0" />
    <pattern
       id="EMFhbasepattern-2"
       patternUnits="userSpaceOnUse"
       width="6"
       height="6"
       x="0"
       y="0" />
    <pattern
       id="EMFhbasepattern-98"
       patternUnits="userSpaceOnUse"
       width="6"
       height="6"
       x="0"
       y="0" />
    <pattern
       id="EMFhbasepattern-6"
       patternUnits="userSpaceOnUse"
       width="6"
       height="6"
       x="0"
       y="0" />
    <pattern
       id="EMFhbasepattern-01"
       patternUnits="userSpaceOnUse"
       width="6"
       height="6"
       x="0"
       y="0" />
    <pattern
       id="EMFhbasepattern-07"
       patternUnits="userSpaceOnUse"
       width="6"
       height="6"
       x="0"
       y="0" />
    <pattern
       id="EMFhbasepattern-8"
       patternUnits="userSpaceOnUse"
       width="6"
       height="6"
       x="0"
       y="0" />
    <pattern
       id="EMFhbasepattern-4"
       patternUnits="userSpaceOnUse"
       width="6"
       height="6"
       x="0"
       y="0" />
    <pattern
       id="EMFhbasepattern-40"
       patternUnits="userSpaceOnUse"
       width="6"
       height="6"
       x="0"
       y="0" />
    <pattern
       id="EMFhbasepattern-08"
       patternUnits="userSpaceOnUse"
       width="6"
       height="6"
       x="0"
       y="0" />
    <pattern
       id="EMFhbasepattern-04"
       patternUnits="userSpaceOnUse"
       width="6"
       height="6"
       x="0"
       y="0" />
    <pattern
       id="EMFhbasepattern-014"
       patternUnits="userSpaceOnUse"
       width="6"
       height="6"
       x="0"
       y="0" />
    <pattern
       id="EMFhbasepattern-27"
       patternUnits="userSpaceOnUse"
       width="6"
       height="6"
       x="0"
       y="0" />
    <pattern
       id="EMFhbasepattern-09"
       patternUnits="userSpaceOnUse"
       width="6"
       height="6"
       x="0"
       y="0" />
    <pattern
       id="EMFhbasepattern-5"
       patternUnits="userSpaceOnUse"
       width="6"
       height="6"
       x="0"
       y="0" />
    <pattern
       id="EMFhbasepattern-018"
       patternUnits="userSpaceOnUse"
       width="6"
       height="6"
       x="0"
       y="0" />
  </defs>
  <sodipodi:namedview
     id="base"
     pagecolor="#ffffff"
     bordercolor="#666666"
     borderopacity="1.0"
     inkscape:pageopacity="0.0"
     inkscape:pageshadow="2"
     inkscape:zoom="3.2460938"
     inkscape:cx="42.666667"
     inkscape:cy="42.666667"
     inkscape:document-units="pt"
     inkscape:current-layer="layer1"
     showgrid="false"
     units="pt"
     inkscape:window-width="1920"
     inkscape:window-height="1001"
     inkscape:window-x="-9"
     inkscape:window-y="41"
     inkscape:window-maximized="1"
     inkscape:pagecheckerboard="true"
     inkscape:showpageshadow="false"
     inkscape:object-paths="true"
     inkscape:snap-intersection-paths="true"
     inkscape:snap-smooth-nodes="true"
     inkscape:snap-midpoints="true"
     showguides="true"
     inkscape:snap-bbox="true"
     inkscape:bbox-nodes="true"
     inkscape:snap-nodes="false"
     inkscape:snap-global="true">
    <inkscape:grid
       type="xygrid"
       id="grid1378" />
    <sodipodi:guide
       position="0.97013831,21.607643"
       orientation="78.000048,0"
       id="guide1380"
       inkscape:locked="false" />
    <sodipodi:guide
       position="0.97013831,0.97013129"
       orientation="0,78.000005"
       id="guide1382"
       inkscape:locked="false" />
    <sodipodi:guide
       position="21.607639,0.97013129"
       orientation="-78.000048,0"
       id="guide1384"
       inkscape:locked="false" />
    <sodipodi:guide
       position="21.607639,21.607643"
       orientation="0,-78.000005"
       id="guide1386"
       inkscape:locked="false" />
  </sodipodi:namedview>
  <metadata
     id="metadata828">
    <rdf:RDF>
      <cc:Work
         rdf:about="">
        <dc:format>image/svg+xml</dc:format>
        <dc:type
           rdf:resource="http://purl.org/dc/dcmitype/StillImage" />
      </cc:Work>
    </rdf:RDF>
  </metadata>
  <g
     inkscape:label="Icon"
     inkscape:groupmode="layer"
     id="layer1"
     transform="translate(0,-274.42223)">
    <path
       id="rect4464"
       style="color:#000000;display:inline;fill:#000000;stroke-width:0.999999;stroke-linecap:round;stroke-linejoin:round;-inkscape-stroke:none"
       d="m 15.725065,275.48628 -1.793232,1.79387 c -0.872712,-0.34626 -1.823914,-0.53711 -2.818767,-0.53711 -1.3075312,0 -2.5415152,0.32744 -3.6189342,0.90667 -1.4551508,-0.8494 -2.7056884,-0.86672 -3.4604603,-0.1851 -0.1306803,0.13002 -0.1306803,0.34152 0,0.47152 l 1.3671649,1.36717 c -1.2046542,1.35162 -1.9367671,3.13528 -1.9367637,5.08678 0,1.19406 0.2742231,2.32789 0.7631452,3.33575 0.080916,0.16441 0.2795868,0.23238 0.444249,0.15198 0.1646523,-0.0807 0.2329288,-0.27941 0.1526278,-0.44424 -0.4462344,-0.91986 -0.6949487,-1.95113 -0.6949487,-3.04349 -3.2e-6,-1.77161 0.6583829,-3.38465 1.7438692,-4.61525 l 1.6165675,1.61592 c -0.674298,0.81411 -1.0800959,1.8606 -1.0800926,2.99867 -3.3e-6,0.67279 0.1415476,1.3164 0.396836,1.89651 l -1.1918082,1.19181 c -0.4572115,0.45721 -0.4118169,1.11772 -0.059101,1.47043 0.3527084,0.3527 1.0132228,0.39815 1.4704342,-0.0591 l 0.973581,-0.97358 c 0.8294897,0.73237 1.9218895,1.17752 3.1136349,1.17752 1.138402,0 2.185177,-0.40548 2.999324,-1.0801 l 0.876806,0.87616 c 0.457208,0.45721 1.115129,0.41177 1.467838,0.0591 0.352707,-0.35271 0.400713,-1.01322 -0.05651,-1.47043 l -1.04957,-1.04957 c 0.296953,-0.61699 0.462433,-1.30878 0.462433,-2.03809 4e-6,-0.90037 -0.252641,-1.74376 -0.692351,-2.45961 0.491881,-0.0155 0.962351,-0.21609 1.311311,-0.56505 l 0.629353,-0.63 c 0.654316,1.06303 1.032687,2.31265 1.032683,3.654 0,1.24576 -0.325776,2.41292 -0.896289,3.42474 -0.09062,0.16063 -0.03322,0.36433 0.127946,0.454 0.159864,0.089 0.361564,0.032 0.451393,-0.12731 0.624939,-1.10833 0.982024,-2.38969 0.982024,-3.75143 2e-6,-1.52299 -0.4466,-2.94439 -1.215189,-4.13722 l 1.473034,-1.47433 c 0.128535,-0.12963 0.128535,-0.33864 0,-0.46828 -0.172912,-0.15322 -0.34477,-0.10583 -0.46893,0 l -2.587551,2.58431 c -0.238839,0.23883 -0.563062,0.37345 -0.900836,0.37345 -0.642786,-0.0814 -1.283659,-0.014 -1.92183,0.5696 l -1.190507,1.18985 -0.470226,-0.46957 1.191806,-1.19181 c 0.653445,-0.63346 0.566999,-1.16321 0.566999,-1.92183 0,-0.33777 0.133969,-0.662 0.372807,-0.90083 l 2.587552,-2.58496 c 0.130697,-0.13 0.130697,-0.34151 0,-0.47152 -0.163725,-0.14429 -0.339145,-0.10319 -0.471527,0 z m 0.940453,0.94045 -2.584951,2.5869 c -0.130697,0.13 -0.130697,0.34153 0,0.47152 0.129709,0.12898 0.339217,0.12898 0.468926,0 l 2.587552,-2.58754 c 0.130261,-0.12993 0.130261,-0.34095 0,-0.47088 -0.165912,-0.1569 -0.332367,-0.12305 -0.471527,0 z m 0.940457,0.94241 -2.584955,2.58495 c -0.130696,0.13001 -0.130696,0.34152 0,0.47152 0.12971,0.12897 0.339222,0.12897 0.46893,0 l 2.586903,-2.58755 c 0.128969,-0.1297 0.128969,-0.33922 0,-0.46892 -0.173121,-0.16775 -0.353891,-0.10859 -0.470878,0 z m -6.492909,0.039 c 0.80829,0 1.5818,0.13624 2.302427,0.38775 l -0.277333,0.27798 c -0.363389,0.36339 -0.566998,0.85585 -0.567,1.36976 v 0.47542 c -0.845166,-0.24514 -1.645964,-0.29593 -2.44791,-0.12665 -0.6261797,-0.62184 -1.3401825,-1.26555 -1.9815827,-1.72242 0.9013674,-0.42402 1.9080887,-0.66184 2.9713987,-0.66184 z m -1.2892384,3.05389 c 0.088052,0.12204 0.1279501,0.21835 0.1279469,0.35137 v 0.55206 c 9.9e-6,0.5646 0.3523995,0.96158 0.6650735,1.27429 l 5.312144,5.30955 c 0.248205,0.2482 0.17668,0.41242 0.0591,0.52998 -0.117564,0.11752 -0.28243,0.18913 -0.530629,-0.0591 -3.63716,-3.64222 -6.7451783,-6.74681 -10.6139338,-10.61649 1.1518939,-0.91435 3.9852065,1.58558 4.9802961,2.65835 z m 2.6083444,0.11047 c -0.06014,0.11764 -0.139084,0.22677 -0.234464,0.32214 l -1.18986,1.19116 c -0.241748,-0.25126 -0.390987,-0.4612 -0.39099,-0.72027 v -0.55207 c 3e-6,-0.15195 -0.03049,-0.29274 -0.07924,-0.42022 0.635877,-0.0869 1.340243,-0.009 1.894551,0.17926 z m -4.4704104,1.29118 1.633457,1.63346 -2.2770985,2.27709 c -0.1572533,-0.43159 -0.2435598,-0.89774 -0.2435565,-1.3847 -3.3e-6,-0.95792 0.3316821,-1.8343 0.887198,-2.52585 z m 6.3636584,0.0824 c 0.516965,0.67847 0.822902,1.52361 0.8229,2.44401 0,0.54417 -0.10702,1.06185 -0.301362,1.53473 l -2.429075,-2.42777 1.191157,-1.19116 c 0.194839,-0.19485 0.446875,-0.32027 0.71638,-0.35981 z m -4.258678,2.02184 0.470231,0.47023 c -1.3281687,1.3271 -2.6548972,2.65498 -3.9826631,3.98204 -0.2482021,0.24819 -0.4104634,0.17663 -0.5280318,0.0591 -0.1175616,-0.11752 -0.1890936,-0.28178 0.059105,-0.52998 z m 0.940457,0.93981 2.632364,2.63237 c -0.691643,0.55587 -1.568242,0.8872 -2.526497,0.8872 -1.011354,0 -1.9339374,-0.37064 -2.6421075,-0.98332 z m 4.550948,4.8679 c -1.208156,0.99899 -2.75365,1.59773 -4.445081,1.59773 -1.6698133,0 -3.2002737,-0.58525 -4.4015661,-1.56136 -0.1429707,-0.11638 -0.3533202,-0.0943 -0.4689299,0.0494 -0.116365,0.14298 -0.094225,0.35333 0.049362,0.46894 1.315113,1.06858 2.9958633,1.70879 4.821134,1.70879 1.848904,0 3.547246,-0.65676 4.869844,-1.75036 0.14196,-0.11714 0.161753,-0.32733 0.04417,-0.46893 -0.155225,-0.16192 -0.332253,-0.15563 -0.468926,-0.0441 z m -3.061027,3.27925 -7.8282535,-0.003 c -0.6465977,0 -1.0800926,0.50075 -1.0800926,0.99956 0,0.4988 0.4334949,0.99632 1.0800926,0.99632 l 7.8282535,-0.003 c 0.601596,0.61306 1.613352,0.98463 2.813574,0.98463 0.875862,0 1.67097,-0.19315 2.275146,-0.52544 0.604176,-0.3323 1.048266,-0.83498 1.048272,-1.4529 1e-5,-0.61793 -0.444092,-1.12385 -1.048272,-1.45614 -0.60418,-0.33231 -1.399274,-0.52284 -2.436952,-0.52284 -1.037678,0 -2.049711,0.36942 -2.651768,0.98201 z m 4.769823,0.12279 c 0.47901,0.26346 0.7047,0.58304 0.704693,0.87422 -4e-6,0.29117 -0.225683,0.6075 -0.704693,0.87095 -0.479012,0.26346 -1.179231,0.4423 -1.956249,0.4423 -1.15253,0 -2.126194,-0.41545 -2.479741,-0.85927 -0.06303,-0.0792 -0.15864,-0.12519 -0.259793,-0.12531 l -7.9022935,0.003 c -0.3510092,0 -0.4143707,-0.16497 -0.4143707,-0.33124 0,-0.16626 0.063364,-0.33382 0.4143707,-0.33382 l 7.9022935,0.003 c 0.101149,-10e-5 0.196764,-0.0462 0.259793,-0.1253 0.354432,-0.44418 1.32783,-0.85667 2.292299,-0.85666 0.96447,0 1.664679,0.17558 2.143691,0.43905 z"
       sodipodi:nodetypes="ccsccccscccsccscssccscccscscccscscscccccccccccccccccccccccccccccsccscccscssccccccccsscccccscccccccccccscccscccccccscccccsccsssssccsssccscccsccs" />
  </g>
</svg>
