<?xml version="1.0" encoding="UTF-8" standalone="no"?>
<svg
   xmlns:dc="http://purl.org/dc/elements/1.1/"
   xmlns:cc="http://creativecommons.org/ns#"
   xmlns:rdf="http://www.w3.org/1999/02/22-rdf-syntax-ns#"
   xmlns:svg="http://www.w3.org/2000/svg"
   xmlns="http://www.w3.org/2000/svg"
   xmlns:sodipodi="http://sodipodi.sourceforge.net/DTD/sodipodi-0.dtd"
   xmlns:inkscape="http://www.inkscape.org/namespaces/inkscape"
   inkscape:export-ydpi="576"
   inkscape:export-xdpi="576"
   inkscape:export-filename="D:\Project Real\adnan #2.2\export Filled line\PNG\17 - Fire Exit.png"
   width="64pt"
   height="64pt"
   viewBox="0 0 22.577778 22.577778"
   version="1.1"
   id="svg831"
   inkscape:version="1.0 (4035a4fb49, 2020-05-01)"
   sodipodi:docname="18 - Restaurant.svg">
  <defs
     id="defs825">
    <pattern
       id="EMFhbasepattern"
       patternUnits="userSpaceOnUse"
       width="6"
       height="6"
       x="0"
       y="0" />
    <pattern
       id="EMFhbasepattern-9"
       patternUnits="userSpaceOnUse"
       width="6"
       height="6"
       x="0"
       y="0" />
    <pattern
       id="EMFhbasepattern-0"
       patternUnits="userSpaceOnUse"
       width="6"
       height="6"
       x="0"
       y="0" />
    <pattern
       id="EMFhbasepattern-7"
       patternUnits="userSpaceOnUse"
       width="6"
       height="6"
       x="0"
       y="0" />
    <pattern
       id="EMFhbasepattern-2"
       patternUnits="userSpaceOnUse"
       width="6"
       height="6"
       x="0"
       y="0" />
    <pattern
       id="EMFhbasepattern-98"
       patternUnits="userSpaceOnUse"
       width="6"
       height="6"
       x="0"
       y="0" />
    <pattern
       id="EMFhbasepattern-6"
       patternUnits="userSpaceOnUse"
       width="6"
       height="6"
       x="0"
       y="0" />
    <pattern
       id="EMFhbasepattern-01"
       patternUnits="userSpaceOnUse"
       width="6"
       height="6"
       x="0"
       y="0" />
    <pattern
       id="EMFhbasepattern-07"
       patternUnits="userSpaceOnUse"
       width="6"
       height="6"
       x="0"
       y="0" />
    <pattern
       id="EMFhbasepattern-8"
       patternUnits="userSpaceOnUse"
       width="6"
       height="6"
       x="0"
       y="0" />
    <pattern
       id="EMFhbasepattern-4"
       patternUnits="userSpaceOnUse"
       width="6"
       height="6"
       x="0"
       y="0" />
    <pattern
       id="EMFhbasepattern-40"
       patternUnits="userSpaceOnUse"
       width="6"
       height="6"
       x="0"
       y="0" />
    <pattern
       id="EMFhbasepattern-08"
       patternUnits="userSpaceOnUse"
       width="6"
       height="6"
       x="0"
       y="0" />
    <pattern
       id="EMFhbasepattern-04"
       patternUnits="userSpaceOnUse"
       width="6"
       height="6"
       x="0"
       y="0" />
    <pattern
       id="EMFhbasepattern-014"
       patternUnits="userSpaceOnUse"
       width="6"
       height="6"
       x="0"
       y="0" />
    <pattern
       id="EMFhbasepattern-27"
       patternUnits="userSpaceOnUse"
       width="6"
       height="6"
       x="0"
       y="0" />
    <pattern
       id="EMFhbasepattern-09"
       patternUnits="userSpaceOnUse"
       width="6"
       height="6"
       x="0"
       y="0" />
    <pattern
       id="EMFhbasepattern-5"
       patternUnits="userSpaceOnUse"
       width="6"
       height="6"
       x="0"
       y="0" />
    <pattern
       id="EMFhbasepattern-018"
       patternUnits="userSpaceOnUse"
       width="6"
       height="6"
       x="0"
       y="0" />
  </defs>
  <sodipodi:namedview
     id="base"
     pagecolor="#ffffff"
     bordercolor="#666666"
     borderopacity="1.0"
     inkscape:pageopacity="0.0"
     inkscape:pageshadow="2"
     inkscape:zoom="6.2578125"
     inkscape:cx="42.666667"
     inkscape:cy="42.666667"
     inkscape:document-units="pt"
     inkscape:current-layer="layer1"
     showgrid="false"
     units="pt"
     inkscape:window-width="1366"
     inkscape:window-height="706"
     inkscape:window-x="-8"
     inkscape:window-y="-8"
     inkscape:window-maximized="1"
     inkscape:pagecheckerboard="true"
     inkscape:showpageshadow="false"
     inkscape:object-paths="true"
     inkscape:snap-intersection-paths="true"
     inkscape:snap-smooth-nodes="true"
     inkscape:snap-midpoints="true"
     showguides="true"
     inkscape:snap-bbox="true"
     inkscape:bbox-nodes="true"
     inkscape:snap-nodes="false"
     inkscape:snap-global="true"
     inkscape:document-rotation="0">
    <inkscape:grid
       type="xygrid"
       id="grid1378" />
    <sodipodi:guide
       position="0.97013831,21.607643"
       orientation="78.000048,0"
       id="guide1380"
       inkscape:locked="false" />
    <sodipodi:guide
       position="0.97013831,0.97013129"
       orientation="0,78.000005"
       id="guide1382"
       inkscape:locked="false" />
    <sodipodi:guide
       position="21.607639,0.97013129"
       orientation="-78.000048,0"
       id="guide1384"
       inkscape:locked="false" />
    <sodipodi:guide
       position="21.607639,21.607643"
       orientation="0,-78.000005"
       id="guide1386"
       inkscape:locked="false" />
  </sodipodi:namedview>
  <metadata
     id="metadata828">
    <rdf:RDF>
      <cc:Work
         rdf:about="">
        <dc:format>image/svg+xml</dc:format>
        <dc:type
           rdf:resource="http://purl.org/dc/dcmitype/StillImage" />
        <dc:title></dc:title>
      </cc:Work>
    </rdf:RDF>
  </metadata>
  <g
     inkscape:label="Icon"
     inkscape:groupmode="layer"
     id="layer1"
     transform="translate(0,-274.42223)">
    <g
       transform="matrix(1.2503279,0,0,1.2503279,0.71104497,-75.049574)"
       style="display:inline;stroke-width:0.79979"
       id="g1335">
      <g
         style="stroke-width:0.79979"
         id="g1387">
        <path
           id="path1154"
           d="m 8.4726562,280.32031 c -0.3526277,10e-4 -0.7068004,0.13845 -0.9726562,0.4043 a 0.27524052,0.27524052 0 0 0 -0.00195,0 l -4.140625,4.18555 -1.6503907,1.46289 a 0.27524052,0.27524052 0 0 0 -0.023437,0.0254 l -1.02929692,1.16992 c -0.53167811,0.53167 -0.53167807,1.40192 0,1.93359 a 0.27524052,0.27524052 0 0 0 0.0175781,0.0156 L 1.5058594,290.22461 2.75,291.62109 a 0.27524052,0.27524052 0 0 0 0.011719,0.0117 L 7.5,296.34766 c 0.5324403,0.52966 1.4019187,0.53167 1.9335938,0 l 4.7187502,-4.70118 a 0.27524052,0.27524052 0 0 0 0.0039,-0.004 l 1.263672,-1.31836 0.853516,-0.81641 a 0.27524052,0.27524052 0 0 0 0.0039,-0.006 c 0.53168,-0.53167 0.531682,-1.40192 0,-1.93359 a 0.27524052,0.27524052 0 0 0 -0.002,-0.002 l -1.046875,-1.00977 a 0.27524052,0.27524052 0 0 0 -0.0039,-0.004 L 13.158203,284.63477 9.4375,280.72852 c -0.2620397,-0.2752 -0.612216,-0.40934 -0.9648438,-0.40821 z"
           style="color:#000000;font-style:normal;font-variant:normal;font-weight:normal;font-stretch:normal;font-size:medium;line-height:normal;font-family:sans-serif;font-variant-ligatures:normal;font-variant-position:normal;font-variant-caps:normal;font-variant-numeric:normal;font-variant-alternates:normal;font-variant-east-asian:normal;font-feature-settings:normal;font-variation-settings:normal;text-indent:0;text-align:start;text-decoration:none;text-decoration-line:none;text-decoration-style:solid;text-decoration-color:#000000;letter-spacing:normal;word-spacing:normal;text-transform:none;writing-mode:lr-tb;direction:ltr;text-orientation:mixed;dominant-baseline:auto;baseline-shift:baseline;text-anchor:start;white-space:normal;shape-padding:0;shape-margin:0;inline-size:0;clip-rule:nonzero;display:inline;overflow:visible;visibility:visible;isolation:auto;mix-blend-mode:normal;color-interpolation:sRGB;color-interpolation-filters:linearRGB;solid-color:#000000;solid-opacity:1;vector-effect:none;fill:#ffd784;fill-opacity:1;fill-rule:nonzero;stroke:none;stroke-width:0.440225;stroke-linecap:round;stroke-linejoin:round;stroke-miterlimit:1.5;stroke-dasharray:none;stroke-dashoffset:0;stroke-opacity:1;color-rendering:auto;image-rendering:auto;shape-rendering:auto;text-rendering:auto;enable-background:accumulate;stop-color:#000000" />
        <path
           d="m 8.4728682,280.32039 c -0.352628,0.001 -0.7072117,0.13826 -0.9730674,0.40411 a 0.27524052,0.27524052 0 0 0 -0.00156,0 l -1.541508,1.55856 c 3.04437,1.30022 4.7967462,6.07528 5.6425602,9.03563 0.210486,0.7367 0.09257,1.81551 0.174667,2.69699 l 2.378149,-2.36936 a 0.27524052,0.27524052 0 0 0 0.0041,-0.004 l 1.263489,-1.31878 0.853695,-0.81597 a 0.27524052,0.27524052 0 0 0 0.0041,-0.006 c 0.531681,-0.53167 0.531682,-1.40206 0,-1.93373 a 0.27524052,0.27524052 0 0 0 -0.0021,-0.002 l -1.046965,-1.00976 a 0.27524052,0.27524052 0 0 0 -0.0041,-0.004 l -2.066029,-1.91771 -3.7207028,-3.90622 C 9.1755566,280.45295 8.825425,280.31877 8.4727973,280.3199 Z"
           style="fill:#fbbe65;fill-opacity:1;stroke-width:0.423223;stroke-linecap:round;stroke-linejoin:round;stroke-miterlimit:1.5"
           id="path1242" />
        <path
           id="path1188"
           d="m 14.242196,286.5189 a 0.25064412,0.25064412 0 0 0 -0.240505,0.23496 l -0.475461,8.58419 c -0.02111,0.41165 0.313022,0.76407 0.725217,0.76407 h 0.752966 c 0.412195,0 0.746329,-0.35241 0.725216,-0.76407 l -0.475461,-8.58419 a 0.25064412,0.25064412 0 0 0 -0.338557,-0.22015 c -0.188554,0.0709 -0.374141,0.0598 -0.592013,-0.006 a 0.25064412,0.25064412 0 0 0 -0.0814,-0.009 z"
           style="color:#000000;font-style:normal;font-variant:normal;font-weight:normal;font-stretch:normal;font-size:medium;line-height:normal;font-family:sans-serif;font-variant-ligatures:normal;font-variant-position:normal;font-variant-caps:normal;font-variant-numeric:normal;font-variant-alternates:normal;font-variant-east-asian:normal;font-feature-settings:normal;font-variation-settings:normal;text-indent:0;text-align:start;text-decoration:none;text-decoration-line:none;text-decoration-style:solid;text-decoration-color:#000000;letter-spacing:normal;word-spacing:normal;text-transform:none;writing-mode:lr-tb;direction:ltr;text-orientation:mixed;dominant-baseline:auto;baseline-shift:baseline;text-anchor:start;white-space:normal;shape-padding:0;shape-margin:0;inline-size:0;clip-rule:nonzero;display:inline;overflow:visible;visibility:visible;isolation:auto;mix-blend-mode:normal;color-interpolation:sRGB;color-interpolation-filters:linearRGB;solid-color:#000000;solid-opacity:1;vector-effect:none;fill:#dc1c4b;fill-opacity:1;fill-rule:nonzero;stroke:none;stroke-width:0.423223;stroke-linecap:round;stroke-linejoin:round;stroke-miterlimit:1.5;stroke-dasharray:none;stroke-dashoffset:0;stroke-opacity:1;color-rendering:auto;image-rendering:auto;shape-rendering:auto;text-rendering:auto;enable-background:accumulate;stop-color:#000000" />
        <path
           id="path1252"
           style="fill:#b41d48;fill-opacity:1;stroke-width:0.423223;stroke-linecap:round;stroke-linejoin:round;stroke-miterlimit:1.5"
           d="m 14.221572,286.31434 a 0.26460996,0.26460996 0 0 0 -0.264067,0.25011 l -0.03669,0.6625 1.394748,-0.0269 -0.03566,-0.63563 a 0.26460996,0.26460996 0 0 0 -0.265617,-0.25011 z" />
        <path
           id="path1231"
           d="m 14.626953,280.70312 c -0.618012,0 -1.152452,0.38808 -1.513672,0.94922 -0.36122,0.56115 -0.572263,1.30861 -0.572265,2.12891 -1e-6,0.8203 0.211045,1.56776 0.572265,2.12891 0.36122,0.56114 0.895657,0.94922 1.513672,0.94922 0.618015,0 1.154405,-0.38808 1.515625,-0.94922 0.36122,-0.56115 0.570314,-1.30861 0.570313,-2.12891 -3e-6,-0.8203 -0.209093,-1.56776 -0.570313,-2.12891 -0.36122,-0.56114 -0.897613,-0.94922 -1.515625,-0.94922 z"
           style="color:#000000;font-style:normal;font-variant:normal;font-weight:normal;font-stretch:normal;font-size:medium;line-height:normal;font-family:sans-serif;font-variant-ligatures:normal;font-variant-position:normal;font-variant-caps:normal;font-variant-numeric:normal;font-variant-alternates:normal;font-variant-east-asian:normal;font-feature-settings:normal;font-variation-settings:normal;text-indent:0;text-align:start;text-decoration:none;text-decoration-line:none;text-decoration-style:solid;text-decoration-color:#000000;letter-spacing:normal;word-spacing:normal;text-transform:none;writing-mode:lr-tb;direction:ltr;text-orientation:mixed;dominant-baseline:auto;baseline-shift:baseline;text-anchor:start;white-space:normal;shape-padding:0;shape-margin:0;inline-size:0;clip-rule:nonzero;display:inline;overflow:visible;visibility:visible;isolation:auto;mix-blend-mode:normal;color-interpolation:sRGB;color-interpolation-filters:linearRGB;solid-color:#000000;solid-opacity:1;vector-effect:none;fill:#d0e2ee;fill-opacity:1;fill-rule:nonzero;stroke:none;stroke-width:0.467552;stroke-linecap:round;stroke-linejoin:round;stroke-miterlimit:1.5;stroke-dasharray:none;stroke-dashoffset:0;stroke-opacity:1;color-rendering:auto;image-rendering:auto;shape-rendering:auto;text-rendering:auto;enable-background:accumulate;stop-color:#000000" />
        <path
           id="path1173"
           d="m 1.9116026,286.57979 a 0.25064412,0.25064412 0 0 0 -0.2497556,0.2368 l -0.4754605,8.52314 c -0.021111,0.41166 0.3130214,0.76407 0.7252161,0.76407 h 0.7529667 c 0.4121947,0 0.746326,-0.35241 0.7252161,-0.76407 l -0.4754605,-8.52314 a 0.25064412,0.25064412 0 0 0 -0.2516056,-0.2368 z"
           style="color:#000000;font-style:normal;font-variant:normal;font-weight:normal;font-stretch:normal;font-size:medium;line-height:normal;font-family:sans-serif;font-variant-ligatures:normal;font-variant-position:normal;font-variant-caps:normal;font-variant-numeric:normal;font-variant-alternates:normal;font-variant-east-asian:normal;font-feature-settings:normal;font-variation-settings:normal;text-indent:0;text-align:start;text-decoration:none;text-decoration-line:none;text-decoration-style:solid;text-decoration-color:#000000;letter-spacing:normal;word-spacing:normal;text-transform:none;writing-mode:lr-tb;direction:ltr;text-orientation:mixed;dominant-baseline:auto;baseline-shift:baseline;text-anchor:start;white-space:normal;shape-padding:0;shape-margin:0;inline-size:0;clip-rule:nonzero;display:inline;overflow:visible;visibility:visible;isolation:auto;mix-blend-mode:normal;color-interpolation:sRGB;color-interpolation-filters:linearRGB;solid-color:#000000;solid-opacity:1;vector-effect:none;fill:#dc1c4b;fill-opacity:1;fill-rule:nonzero;stroke:none;stroke-width:0.423223;stroke-linecap:round;stroke-linejoin:round;stroke-miterlimit:1.5;stroke-dasharray:none;stroke-dashoffset:0;stroke-opacity:1;color-rendering:auto;image-rendering:auto;shape-rendering:auto;text-rendering:auto;enable-background:accumulate;stop-color:#000000" />
        <path
           d="m 1.8908407,286.31434 a 0.26460996,0.26460996 0 0 0 -0.2640666,0.25011 l -0.03669,0.6625 1.3947469,-0.0269 -0.035657,-0.63563 a 0.26460996,0.26460996 0 0 0 -0.2656168,-0.25011 z"
           style="fill:#b41d48;fill-opacity:1;stroke-width:0.423223;stroke-linecap:round;stroke-linejoin:round;stroke-miterlimit:1.5"
           id="path1247" />
        <path
           id="path1203"
           d="m 0.73242188,282.95312 a 0.26460996,0.26460996 0 0 0 -0.2578125,0.31836 c 0.14620809,0.70695 0.2720192,1.51151 0.5078125,2.18555 0.11789662,0.33702 0.26135082,0.64393 0.46679692,0.89063 0.205446,0.24669 0.484368,0.43248 0.8203124,0.48242 a 0.26460996,0.26460996 0 0 0 0.078125,0 c 0.3733328,-0.0558 0.6730138,-0.27033 0.890625,-0.54688 0.2176113,-0.27654 0.3669214,-0.61637 0.4824219,-0.97461 0.2310011,-0.71648 0.3276257,-1.52219 0.4335938,-2.03906 a 0.26460996,0.26460996 0 0 0 -0.2578125,-0.31641 z"
           style="color:#000000;font-style:normal;font-variant:normal;font-weight:normal;font-stretch:normal;font-size:medium;line-height:normal;font-family:sans-serif;font-variant-ligatures:normal;font-variant-position:normal;font-variant-caps:normal;font-variant-numeric:normal;font-variant-alternates:normal;font-variant-east-asian:normal;font-feature-settings:normal;font-variation-settings:normal;text-indent:0;text-align:start;text-decoration:none;text-decoration-line:none;text-decoration-style:solid;text-decoration-color:#000000;letter-spacing:normal;word-spacing:normal;text-transform:none;writing-mode:lr-tb;direction:ltr;text-orientation:mixed;dominant-baseline:auto;baseline-shift:baseline;text-anchor:start;white-space:normal;shape-padding:0;shape-margin:0;inline-size:0;clip-rule:nonzero;display:inline;overflow:visible;visibility:visible;isolation:auto;mix-blend-mode:normal;color-interpolation:sRGB;color-interpolation-filters:linearRGB;solid-color:#000000;solid-opacity:1;vector-effect:none;fill:#d0e2ee;fill-opacity:1;fill-rule:nonzero;stroke:none;stroke-width:0.423223;stroke-linecap:round;stroke-linejoin:round;stroke-miterlimit:1.5;stroke-dasharray:none;stroke-dashoffset:0;stroke-opacity:1;color-rendering:auto;image-rendering:auto;shape-rendering:auto;text-rendering:auto;enable-background:accumulate;stop-color:#000000" />
        <path
           d="m 14.627012,280.70331 c -0.185113,0 -0.361458,0.0385 -0.529167,0.10232 0.392846,0.14931 0.733442,0.45334 0.986503,0.84646 0.361221,0.56115 0.569988,1.30877 0.569992,2.12907 0,0.8203 -0.208771,1.56792 -0.569992,2.12907 -0.253085,0.39316 -0.593611,0.69768 -0.986503,0.84698 0.167677,0.0638 0.344092,0.10232 0.529167,0.10232 0.618015,0 1.15445,-0.38816 1.51567,-0.9493 0.36122,-0.56115 0.569992,-1.30877 0.569991,-2.12907 -3e-6,-0.8203 -0.208771,-1.56792 -0.569991,-2.12907 -0.36122,-0.56114 -0.897658,-0.94878 -1.51567,-0.94878 z"
           style="color:#000000;font-style:normal;font-variant:normal;font-weight:normal;font-stretch:normal;font-size:medium;line-height:normal;font-family:sans-serif;font-variant-ligatures:normal;font-variant-position:normal;font-variant-caps:normal;font-variant-numeric:normal;font-variant-alternates:normal;font-variant-east-asian:normal;font-feature-settings:normal;font-variation-settings:normal;text-indent:0;text-align:start;text-decoration:none;text-decoration-line:none;text-decoration-style:solid;text-decoration-color:#000000;letter-spacing:normal;word-spacing:normal;text-transform:none;writing-mode:lr-tb;direction:ltr;text-orientation:mixed;dominant-baseline:auto;baseline-shift:baseline;text-anchor:start;white-space:normal;shape-padding:0;shape-margin:0;inline-size:0;clip-rule:nonzero;display:inline;overflow:visible;visibility:visible;isolation:auto;mix-blend-mode:normal;color-interpolation:sRGB;color-interpolation-filters:linearRGB;solid-color:#000000;solid-opacity:1;vector-effect:none;fill:#aabfd0;fill-opacity:1;fill-rule:nonzero;stroke:none;stroke-width:0.467553;stroke-linecap:round;stroke-linejoin:round;stroke-miterlimit:1.5;stroke-dasharray:none;stroke-dashoffset:0;stroke-opacity:1;color-rendering:auto;image-rendering:auto;shape-rendering:auto;text-rendering:auto;enable-background:accumulate;stop-color:#000000"
           id="path1254" />
        <path
           d="m 3.2178914,282.95331 c 0.085681,1.29279 -1.3915746,2.16574 -1.885673,3.23391 0.03715,0.0552 0.074762,0.10973 0.1167888,0.16019 0.205446,0.24669 0.4846774,0.43272 0.8206218,0.48266 a 0.26460996,0.26460996 0 0 0 0.078031,0 c 0.3733327,-0.0558 0.6727738,-0.27019 0.8903849,-0.54673 0.2176113,-0.27655 0.3671575,-0.61638 0.4826579,-0.97462 0.2310011,-0.71648 0.3275973,-1.52228 0.4335654,-2.03915 a 0.26460996,0.26460996 0 0 0 -0.2578656,-0.31626 z"
           style="fill:#aabfd0;fill-opacity:1;stroke-width:0.423223;stroke-linecap:round;stroke-linejoin:round;stroke-miterlimit:1.5"
           id="path1261" />
      </g>
      <path
         id="path1731"
         style="color:#000000;font-style:normal;font-variant:normal;font-weight:normal;font-stretch:normal;font-size:medium;line-height:normal;font-family:sans-serif;font-variant-ligatures:normal;font-variant-position:normal;font-variant-caps:normal;font-variant-numeric:normal;font-variant-alternates:normal;font-variant-east-asian:normal;font-feature-settings:normal;font-variation-settings:normal;text-indent:0;text-align:start;text-decoration:none;text-decoration-line:none;text-decoration-style:solid;text-decoration-color:#000000;letter-spacing:normal;word-spacing:normal;text-transform:none;writing-mode:lr-tb;direction:ltr;text-orientation:mixed;dominant-baseline:auto;baseline-shift:baseline;text-anchor:start;white-space:normal;shape-padding:0;shape-margin:0;inline-size:0;clip-rule:nonzero;display:inline;overflow:visible;visibility:visible;opacity:1;isolation:auto;mix-blend-mode:normal;color-interpolation:sRGB;color-interpolation-filters:linearRGB;solid-color:#000000;solid-opacity:1;vector-effect:none;fill:#000000;fill-opacity:1;fill-rule:nonzero;stroke:none;stroke-width:0.440225;stroke-linecap:round;stroke-linejoin:round;stroke-miterlimit:1.5;stroke-dasharray:none;stroke-dashoffset:0;stroke-opacity:1;color-rendering:auto;image-rendering:auto;shape-rendering:auto;text-rendering:auto;enable-background:accumulate;stop-color:#000000;stop-opacity:1"
         d="m 16.275497,287.56647 -0.928626,-0.89555 c 0.312242,-0.16679 0.584632,-0.43261 0.795817,-0.76068 0.36122,-0.56115 0.569992,-1.30877 0.569991,-2.12907 -7e-6,-0.8203 -0.208775,-1.56792 -0.569995,-2.12907 -0.36122,-0.56114 -0.897658,-0.94878 -1.51567,-0.94878 -0.618012,0 -1.152383,0.38764 -1.513603,0.94878 -0.36122,0.56115 -0.572573,1.30877 -0.572575,2.12907 0,0.0722 0.0035,0.14295 0.0067,0.21394 l -3.109887,-3.26647 c -0.2620396,-0.2752 -0.6121712,-0.40937 -0.9647989,-0.40824 -0.3526279,10e-4 -0.7072117,0.13826 -0.9730674,0.40411 h -0.00156 l -3.4096003,3.4463 c 0.2036141,-0.91243 0.3193606,-2.00086 0.3193603,-3.17293 5.821e-4,-0.14613 -0.1174242,-0.26505 -0.2635499,-0.26562 -0.1469337,-5.8e-4 -0.2661917,0.11868 -0.2656168,0.26562 3e-7,0.69073 -0.043994,1.34893 -0.120406,1.95543 H 2.5724528 v -1.95543 c 5.79e-4,-0.14618 -0.117888,-0.26512 -0.2640666,-0.26562 -0.146942,-5.8e-4 -0.2661991,0.11868 -0.2656168,0.26562 v 1.95543 H 0.85731203 c -0.0768505,-0.60649 -0.12092297,-1.26471 -0.12092286,-1.95543 5.7181e-4,-0.14613 -0.11742405,-0.26505 -0.2635498,-0.26562 -0.14693365,-5.8e-4 -0.26619186,0.11868 -0.26561687,0.26562 -2.4e-7,1.56183 0.20766839,2.97538 0.55242108,4.02146 0.17237633,0.52303 0.37691892,0.95507 0.62528482,1.27382 0.062091,0.0797 0.128464,0.15363 0.1984375,0.21911 l -0.92914227,1.05626 c -0.53167809,0.53167 -0.53167805,1.40155 0,1.93322 0.005635,0.005 0.0114911,0.0105 0.0175699,0.0155 l 0.75447597,0.64182 -0.3012736,5.40329 c -0.022287,0.43459 0.3306826,0.80667 0.7658448,0.80667 h 0.7947836 c 0.4351621,0 0.7876141,-0.37208 0.765328,-0.80667 l -0.1917197,-3.4339 4.2405681,4.21938 c 0.5324404,0.52966 1.402057,0.53167 1.9337322,0 l 4.2204141,-4.20543 -0.189136,3.41995 c -0.02229,0.43459 0.330683,0.80667 0.765845,0.80667 h 0.794783 c 0.435162,0 0.787617,-0.37207 0.765328,-0.80667 l -0.294039,-5.31079 0.776697,-0.74362 0.0041,-0.006 c 0.531681,-0.53167 0.531683,-1.40207 0,-1.93374 m -7.8072848,-6.6983 c 0.2085229,-10e-4 0.4153231,0.078 0.5689574,0.23927 l 3.6530154,3.8349 c 0.0979,0.35892 0.240821,0.68568 0.421163,0.96584 0.222086,0.345 0.510119,0.62335 0.842326,0.78755 l -0.256315,4.62349 -4.6544959,4.63589 c -2.4e-6,6.6e-4 -2.4e-6,0.001 0,0.002 -0.3213267,0.32133 -0.8332266,0.31908 -1.1560019,-0.002 L 3.2137223,291.307 2.9501727,286.58326 c 0.1013526,-0.0819 0.1958361,-0.17964 0.2821533,-0.29042 0.2048441,-0.2629 0.3785047,-0.60637 0.5302001,-1.01079 l 4.1279136,-4.16926 c 0.1607108,-0.15983 0.3712863,-0.24151 0.5798095,-0.24288 z m 6.1567298,0.41703 c 0.372612,0 0.735225,0.23427 1.023193,0.68162 0.287968,0.44735 0.478522,1.09368 0.478524,1.81229 1e-6,0.71862 -0.190556,1.36546 -0.478524,1.81281 -0.287969,0.44735 -0.650579,0.68161 -1.023193,0.68161 -0.372614,0 -0.733675,-0.23426 -1.021643,-0.68161 -0.287969,-0.44735 -0.478525,-1.09419 -0.478524,-1.81281 3e-6,-0.71861 0.190556,-1.36494 0.478524,-1.81229 0.287968,-0.44735 0.649031,-0.68162 1.021643,-0.68162 z M 0.93530841,283.48216 H 3.681394 c -0.085828,0.51104 -0.1957853,0.97563 -0.3260781,1.37097 -0.1598538,0.48504 -0.3501334,0.87016 -0.5410523,1.11518 -0.190919,0.24502 -0.3608989,0.33435 -0.5059124,0.33435 -0.1450135,0 -0.3144766,-0.0894 -0.5053955,-0.33435 -0.1909189,-0.24502 -0.3811986,-0.63014 -0.5410522,-1.11518 -0.1302911,-0.39534 -0.2403827,-0.85993 -0.32659509,-1.37097 z m 7.53132339,1.12706 c -2.1648232,0 -3.9258619,1.76104 -3.9258587,3.92586 7.1e-6,2.1648 1.7610426,3.92534 3.9258587,3.92534 1.4197862,0 2.6665742,-0.75473 3.3553502,-1.88671 0.07954,-0.12982 0.03855,-0.29956 -0.09147,-0.37878 -0.129962,-0.0795 -0.299736,-0.0382 -0.378788,0.092 -0.592196,0.97326 -1.6604046,1.62316 -2.8850952,1.62316 -1.8673429,0 -3.3749819,-1.50766 -3.3749877,-3.37499 -2.9e-6,-1.86735 1.5076384,-3.37499 3.3749877,-3.37499 1.2523819,0 2.3426832,0.68143 2.9259192,1.69137 0.07649,0.13062 0.244108,0.17495 0.375171,0.0992 0.131058,-0.0758 0.176313,-0.24317 0.101286,-0.37465 -0.678462,-1.17484 -1.95049,-1.96682 -3.4023762,-1.96681 z m -6.326229,2.23397 h 0.2930054 l 0.4883424,8.74624 c 0.00715,0.13943 -0.096557,0.25011 -0.2361613,0.25011 H 1.8908407 c -0.1390328,0 -0.2449551,-0.10943 -0.2387452,-0.24804 v -0.002 z m 12.3351642,0.004 c 0.10426,0.0201 0.205123,0.006 0.302307,0 l 0.483692,8.7421 c 0.0072,0.13943 -0.09655,0.25011 -0.236162,0.25011 h -0.794783 c -0.139033,0 -0.24444,-0.10943 -0.238229,-0.24804 v -0.002 z m -12.8922361,0.49919 -0.118339,2.12235 -0.4201294,-0.35605 c -0.32133022,-0.32133 -0.32133051,-0.83312 0,-1.15445 0.00405,-0.004 0.00813,-0.009 0.011886,-0.0134 z m 13.7573001,0.0837 0.548286,0.52865 c 0.321324,0.32132 0.321329,0.83261 0,1.15393 l -0.432531,0.41445 z"
         sodipodi:nodetypes="cccccscscccccccccccccccccccssccccccssccccccssccccccccccccccccsccccssssssssscccsscccccscccscscccccccssccccccsscccccccccccccc" />
    </g>
  </g>
</svg>
